<svg xmlns="http://www.w3.org/2000/svg" xmlns:xlink="http://www.w3.org/1999/xlink" width="256" height="77" viewBox="0 0 256 77"><defs><clipPath id="b"><rect width="256" height="77"/></clipPath></defs><g id="a" clip-path="url(#b)"><g transform="translate(-24.56 -43.31)"><path d="M133.685,76.653a14.786,14.786,0,0,1,12.183-5.421c5.067.118,8.642,2.66,11.222,6.913a17.123,17.123,0,0,1,3.454-3.894,14.294,14.294,0,0,1,10.23-2.96A12.9,12.9,0,0,1,176.36,72.8c3.021,1.683,4.575,4.4,5.368,7.65a21.718,21.718,0,0,1,.584,5.148q.014,12.02,0,24.039c0,.917.078.8-.828.8-3.029,0-6.058-.02-9.086.018-.639.008-.75-.189-.748-.778q.031-10.212,0-20.423a15.807,15.807,0,0,0-.708-5.123,5.139,5.139,0,0,0-5.054-3.788c-4.042-.171-6.484,1.785-7.429,5.932a20.02,20.02,0,0,0-.476,4.4q-.03,9.513.008,19.028c0,.632-.18.756-.776.75q-4.573-.048-9.15,0c-.636.008-.753-.189-.751-.781q.031-9.766.008-19.535a21.894,21.894,0,0,0-.342-4.795,6.2,6.2,0,0,0-5.594-4.993,6.833,6.833,0,0,0-6.948,4.386,14.88,14.88,0,0,0-.752,5.177q-.025,9.925.008,19.852c0,.577-.161.69-.7.686q-4.7-.041-9.4,0c-.484,0-.592-.135-.592-.6q.021-18.393,0-36.787c0-.415.066-.586.541-.583q4.8.033,9.6,0c.454,0,.568.13.557.568C133.665,74.246,133.685,75.449,133.685,76.653Z" fill="#24abe1"/><path d="M31.264,81.143q0-14.239-.014-28.478c0-.593.168-.726.739-.725q15.473.026,30.945,0c.633,0,.76.183.754.778q-.048,4.248,0,8.5c.005.566-.125.743-.725.741-6.5-.024-13.005-.007-19.507-.03-.61,0-.774.145-.769.762q.046,5.772,0,11.543c0,.537.153.662.674.661,6.269-.018,12.539,0,18.808-.025.568,0,.743.126.736.72-.034,2.854-.029,5.709,0,8.562.005.531-.14.66-.665.658-6.269-.019-12.539-.006-18.808-.024-.553,0-.75.1-.747.712q.043,7.166,0,14.333c0,.62.208.709.751.707,6.5-.016,13.005,0,19.508-.022.552,0,.753.1.745.711-.036,2.874-.027,5.75,0,8.625,0,.473-.124.6-.6.6q-15.6-.021-31.2,0c-.579,0-.633-.222-.632-.7Q31.272,95.444,31.264,81.143Z" fill="#2dbfee"/><path d="M263.369,77.224c0-1.448.017-2.776-.009-4.1-.009-.466.072-.659.612-.654q4.764.043,9.53,0c.493,0,.591.15.591.609q-.018,18.36,0,36.721c0,.549-.178.655-.685.651q-4.67-.033-9.34,0c-.539,0-.739-.1-.717-.687.049-1.286.015-2.575.015-3.883-.329-.009-.41.252-.548.406a14.354,14.354,0,0,1-6.641,4.606,17.641,17.641,0,0,1-17.114-3.589,19.392,19.392,0,0,1-6.636-12.873A21.657,21.657,0,0,1,234.5,81.5a17.739,17.739,0,0,1,13.144-9.957c5.806-1.043,10.856.45,14.906,4.875C262.773,76.663,263.023,76.886,263.369,77.224ZM264.513,91.5a10.634,10.634,0,0,0-21.267-.176,10.7,10.7,0,0,0,10.679,10.763A10.525,10.525,0,0,0,264.513,91.5Z" fill="#24abe1"/><path d="M106.994,93.18c-4.532,0-9.064.008-13.6-.011-.518,0-.7.105-.652.661a12.306,12.306,0,0,0,1.747,5.822c1.8,2.755,4.514,3.645,7.647,3.678a9.515,9.515,0,0,0,8.388-4.383,1.177,1.177,0,0,1,1.381-.587c2.832.5,5.672.947,8.514,1.381.464.07.444.221.293.561a17.871,17.871,0,0,1-13.832,10.986,24.5,24.5,0,0,1-12.4-.827,17.379,17.379,0,0,1-11.7-12.052,23.529,23.529,0,0,1,.5-15.368c2.383-6.279,7.058-9.969,13.6-11.3a22.742,22.742,0,0,1,12.986.94c5.684,2.2,9.044,6.467,10.59,12.257a29.048,29.048,0,0,1,.813,7.79c0,.518-.285.458-.606.458H106.994Zm-4.953-6.756c2.795,0,5.59-.008,8.384.008.456,0,.593-.1.472-.574a8.612,8.612,0,0,0-8.934-6.924,8.435,8.435,0,0,0-8.694,6.934c-.1.436-.035.572.45.568C96.493,86.413,99.267,86.424,102.041,86.424Z" fill="#24abe1"/><path d="M230.027,84.092a18.2,18.2,0,0,0-3.658-2.237c-3.994-1.607-7.9-1.477-11.5.985-3.477,2.383-4.771,5.877-4.348,9.988.6,5.822,5.484,9.492,11.576,9.259a12.792,12.792,0,0,0,7.057-2.532l.766-.544c.173.162.1.34.1.493.006,3.087,0,6.174.014,9.261a.761.761,0,0,1-.505.807c-7.4,3.74-17.607,2.577-23.88-3.453a19.287,19.287,0,0,1-6.149-12.9,19.685,19.685,0,0,1,5.2-15.325,20.418,20.418,0,0,1,12.823-6.44,20.851,20.851,0,0,1,11.767,1.691,1.1,1.1,0,0,1,.753,1.18C230.006,77.537,230.027,80.75,230.027,84.092Z" fill="#24abe1"/><path d="M78.4,81.244q0,14.235.013,28.471c0,.561-.118.744-.718.738-3.112-.033-6.225-.028-9.338,0-.512,0-.628-.151-.628-.642q.02-28.6,0-57.195c0-.517.122-.678.661-.674q4.668.039,9.338,0c.584-.006.685.175.684.711Q78.387,66.946,78.4,81.244Z" fill="#2dbfee"/><path d="M196.454,91.451c0,6.109-.007,12.218.012,18.327,0,.52-.123.677-.661.673q-4.7-.039-9.4,0c-.488,0-.64-.112-.639-.624q.022-18.36,0-36.719c0-.488.114-.638.624-.634q4.67.038,9.339,0c.559,0,.745.11.742.714C196.444,79.274,196.454,85.363,196.454,91.451Z" fill="#24abe1"/><path d="M197.509,61.086a6.42,6.42,0,1,1-6.432-6.441A6.407,6.407,0,0,1,197.509,61.086Z" fill="#24abe1"/></g></g></svg>